<?xml version="1.0" encoding="UTF-8" standalone="no"?>
<!DOCTYPE svg PUBLIC "-//W3C//DTD SVG 1.1//EN"
 "http://www.w3.org/Graphics/SVG/1.1/DTD/svg11.dtd">
<!-- Generated by graphviz version 13.0.1 (20250615.1724)
 -->
<!-- Pages: 1 -->
<svg width="423pt" height="205pt"
 viewBox="0.00 0.00 423.00 205.00" xmlns="http://www.w3.org/2000/svg" xmlns:xlink="http://www.w3.org/1999/xlink">
<g id="graph0" class="graph" transform="scale(1 1) rotate(0) translate(4 201.27)">
<polygon fill="white" stroke="none" points="-4,4 -4,-201.27 419.17,-201.27 419.17,4 -4,4"/>
<!-- x -->
<g id="node1" class="node">
<title>x</title>
<polygon fill="lightgray" stroke="black" points="171.09,-134.35 150.59,-134.35 150.59,-115.85 171.09,-115.85 171.09,-134.35"/>
<text xml:space="preserve" text-anchor="middle" x="160.84" y="-121.8" font-family="Times,serif" font-size="9.00">x</text>
</g>
<!-- backward -->
<g id="node8" class="node">
<title>backward</title>
<ellipse fill="lightblue" stroke="black" cx="117.84" cy="-35.71" rx="35.71" ry="35.71"/>
<text xml:space="preserve" text-anchor="middle" x="117.84" y="-32.41" font-family="Times,serif" font-size="9.00">backward</text>
</g>
<!-- x&#45;&gt;backward -->
<g id="edge1" class="edge">
<title>x&#45;&gt;backward</title>
<path fill="none" stroke="red" stroke-width="0.25" d="M156.56,-115.4C152.13,-106.4 144.9,-91.7 137.87,-77.42"/>
<polygon fill="red" stroke="red" stroke-width="0.25" points="141.04,-75.92 133.48,-68.5 134.76,-79.02 141.04,-75.92"/>
</g>
<!-- jump -->
<g id="node9" class="node">
<title>jump</title>
<ellipse fill="lightblue" stroke="black" cx="198.84" cy="-35.71" rx="24.04" ry="24.04"/>
<text xml:space="preserve" text-anchor="middle" x="198.84" y="-32.41" font-family="Times,serif" font-size="9.00">jump</text>
</g>
<!-- x&#45;&gt;jump -->
<g id="edge2" class="edge">
<title>x&#45;&gt;jump</title>
<path fill="none" stroke="green" stroke-width="0.33" d="M164.62,-115.4C169.43,-104.35 177.97,-84.7 185.32,-67.8"/>
<polygon fill="green" stroke="green" stroke-width="0.33" points="188.49,-69.29 189.27,-58.72 182.07,-66.49 188.49,-69.29"/>
</g>
<!-- y -->
<g id="node2" class="node">
<title>y</title>
<polygon fill="lightgray" stroke="black" points="232.09,-197.27 211.59,-197.27 211.59,-178.77 232.09,-178.77 232.09,-197.27"/>
<text xml:space="preserve" text-anchor="middle" x="221.84" y="-184.72" font-family="Times,serif" font-size="9.00">y</text>
</g>
<!-- forward -->
<g id="node7" class="node">
<title>forward</title>
<ellipse fill="lightblue" stroke="black" cx="381.84" cy="-35.71" rx="31.47" ry="31.47"/>
<text xml:space="preserve" text-anchor="middle" x="381.84" y="-32.41" font-family="Times,serif" font-size="9.00">forward</text>
</g>
<!-- y&#45;&gt;forward -->
<g id="edge16" class="edge">
<title>y&#45;&gt;forward</title>
<path fill="none" stroke="green" stroke-width="0.14" d="M232.55,-186.14C268.52,-182.93 383.93,-170.58 405.84,-142.77 421.76,-122.57 413.94,-93.84 403.14,-71.37"/>
<polygon fill="green" stroke="green" stroke-width="0.14" points="406.35,-69.95 398.66,-62.67 400.12,-73.16 406.35,-69.95"/>
</g>
<!-- y&#45;&gt;backward -->
<g id="edge3" class="edge">
<title>y&#45;&gt;backward</title>
<path fill="none" stroke="green" stroke-width="0.35" stroke-dasharray="1,5" d="M211.1,-186.52C171.41,-184.42 34.01,-174.91 7.84,-142.77 -19.75,-108.9 33.67,-74.72 75.3,-54.64"/>
<polygon fill="green" stroke="green" stroke-width="0.35" points="76.72,-57.84 84.29,-50.43 73.75,-51.5 76.72,-57.84"/>
</g>
<!-- y&#45;&gt;jump -->
<g id="edge4" class="edge">
<title>y&#45;&gt;jump</title>
<path fill="none" stroke="green" stroke-width="0.19" stroke-dasharray="1,5" d="M220.54,-178.51C217.39,-157.94 209.23,-104.62 203.86,-69.54"/>
<polygon fill="green" stroke="green" stroke-width="0.19" points="207.38,-69.37 202.41,-60.02 200.46,-70.43 207.38,-69.37"/>
</g>
<!-- 58 -->
<g id="node10" class="node">
<title>58</title>
<ellipse fill="white" stroke="black" cx="244.84" cy="-125.1" rx="17.68" ry="17.68"/>
<text xml:space="preserve" text-anchor="middle" x="244.84" y="-121.8" font-family="Times,serif" font-size="9.00">58</text>
</g>
<!-- y&#45;&gt;58 -->
<g id="edge14" class="edge">
<title>y&#45;&gt;58</title>
<path fill="none" stroke="red" stroke-width="0.53" d="M225.14,-178.29C227.76,-171.33 231.58,-161.22 235.16,-151.74"/>
<polygon fill="red" stroke="red" stroke-width="0.53" points="238.34,-153.22 238.6,-142.63 231.79,-150.75 238.34,-153.22"/>
</g>
<!-- ball_relative_x -->
<g id="node3" class="node">
<title>ball_relative_x</title>
<polygon fill="lightgray" stroke="black" points="348.72,-134.35 280.97,-134.35 280.97,-115.85 348.72,-115.85 348.72,-134.35"/>
<text xml:space="preserve" text-anchor="middle" x="314.84" y="-121.8" font-family="Times,serif" font-size="9.00">ball_relative_x</text>
</g>
<!-- ball_relative_x&#45;&gt;forward -->
<g id="edge5" class="edge">
<title>ball_relative_x&#45;&gt;forward</title>
<path fill="none" stroke="red" stroke-width="0.52" d="M321.51,-115.4C329.68,-104.74 344.01,-86.05 356.65,-69.57"/>
<polygon fill="red" stroke="red" stroke-width="0.52" points="359.28,-71.89 362.58,-61.82 353.72,-67.63 359.28,-71.89"/>
</g>
<!-- ball_relative_x&#45;&gt;backward -->
<g id="edge6" class="edge">
<title>ball_relative_x&#45;&gt;backward</title>
<path fill="none" stroke="green" stroke-width="1.58" d="M293.03,-115.43C286.26,-112.8 278.76,-109.93 271.84,-107.42 225.08,-90.42 210.05,-94.25 165.84,-71.42 162.52,-69.7 159.18,-67.78 155.88,-65.73"/>
<polygon fill="green" stroke="green" stroke-width="1.58" points="157.88,-62.86 147.61,-60.24 154.01,-68.69 157.88,-62.86"/>
</g>
<!-- ball_relative_x&#45;&gt;jump -->
<g id="edge7" class="edge">
<title>ball_relative_x&#45;&gt;jump</title>
<path fill="none" stroke="green" stroke-width="0.59" d="M303.29,-115.4C285.43,-101.94 250.6,-75.7 226.09,-57.23"/>
<polygon fill="green" stroke="green" stroke-width="0.59" points="228.38,-54.58 218.28,-51.35 224.16,-60.17 228.38,-54.58"/>
</g>
<!-- ball_relative_y -->
<g id="node4" class="node">
<title>ball_relative_y</title>
<polygon fill="lightgray" stroke="black" points="84.72,-134.35 16.97,-134.35 16.97,-115.85 84.72,-115.85 84.72,-134.35"/>
<text xml:space="preserve" text-anchor="middle" x="50.84" y="-121.8" font-family="Times,serif" font-size="9.00">ball_relative_y</text>
</g>
<!-- ball_relative_y&#45;&gt;backward -->
<g id="edge8" class="edge">
<title>ball_relative_y&#45;&gt;backward</title>
<path fill="none" stroke="red" stroke-width="0.23" stroke-dasharray="1,5" d="M57.51,-115.4C65.18,-105.4 78.25,-88.34 90.28,-72.66"/>
<polygon fill="red" stroke="red" stroke-width="0.23" points="92.91,-74.98 96.22,-64.91 87.36,-70.72 92.91,-74.98"/>
</g>
<!-- ball_relative_y&#45;&gt;jump -->
<g id="edge9" class="edge">
<title>ball_relative_y&#45;&gt;jump</title>
<path fill="none" stroke="red" stroke-width="0.28" d="M71.31,-115.43C99.1,-103.5 147.09,-82.27 162.84,-71.42 167.2,-68.42 171.52,-64.88 175.58,-61.23"/>
<polygon fill="red" stroke="red" stroke-width="0.28" points="177.85,-63.89 182.69,-54.47 173.03,-58.82 177.85,-63.89"/>
</g>
<!-- bvx -->
<g id="node5" class="node">
<title>bvx</title>
<polygon fill="lightgray" stroke="black" points="396.59,-134.35 367.09,-134.35 367.09,-115.85 396.59,-115.85 396.59,-134.35"/>
<text xml:space="preserve" text-anchor="middle" x="381.84" y="-121.8" font-family="Times,serif" font-size="9.00">bvx</text>
</g>
<!-- bvx&#45;&gt;forward -->
<g id="edge10" class="edge">
<title>bvx&#45;&gt;forward</title>
<path fill="none" stroke="red" stroke-width="0.2" d="M381.84,-115.4C381.84,-106.43 381.84,-91.8 381.84,-77.57"/>
<polygon fill="red" stroke="red" stroke-width="0.2" points="385.34,-77.67 381.84,-67.67 378.34,-77.67 385.34,-77.67"/>
</g>
<!-- bvx&#45;&gt;jump -->
<g id="edge11" class="edge">
<title>bvx&#45;&gt;jump</title>
<path fill="none" stroke="red" stroke-width="0.51" stroke-dasharray="1,5" d="M370.41,-115.5C366.52,-112.75 362.08,-109.81 357.84,-107.42 315.68,-83.68 264.04,-61.96 231.28,-49.04"/>
<polygon fill="red" stroke="red" stroke-width="0.51" points="232.65,-45.81 222.06,-45.43 230.1,-52.33 232.65,-45.81"/>
</g>
<!-- bvy -->
<g id="node6" class="node">
<title>bvy</title>
<polygon fill="lightgray" stroke="black" points="132.59,-134.35 103.09,-134.35 103.09,-115.85 132.59,-115.85 132.59,-134.35"/>
<text xml:space="preserve" text-anchor="middle" x="117.84" y="-121.8" font-family="Times,serif" font-size="9.00">bvy</text>
</g>
<!-- bvy&#45;&gt;backward -->
<g id="edge12" class="edge">
<title>bvy&#45;&gt;backward</title>
<path fill="none" stroke="red" stroke-width="0.13" stroke-dasharray="1,5" d="M117.84,-115.4C117.84,-107.28 117.84,-94.51 117.84,-81.6"/>
<polygon fill="red" stroke="red" stroke-width="0.13" points="121.34,-81.96 117.84,-71.96 114.34,-81.96 121.34,-81.96"/>
</g>
<!-- bvy&#45;&gt;jump -->
<g id="edge13" class="edge">
<title>bvy&#45;&gt;jump</title>
<path fill="none" stroke="red" stroke-width="0.14" stroke-dasharray="1,5" d="M125.9,-115.4C137.46,-102.93 159.18,-79.5 175.92,-61.43"/>
<polygon fill="red" stroke="red" stroke-width="0.14" points="178.37,-63.94 182.6,-54.23 173.24,-59.18 178.37,-63.94"/>
</g>
<!-- 58&#45;&gt;jump -->
<g id="edge15" class="edge">
<title>58&#45;&gt;jump</title>
<path fill="none" stroke="green" stroke-width="0.77" d="M236.83,-108.87C230.78,-97.38 222.28,-81.24 214.86,-67.14"/>
<polygon fill="green" stroke="green" stroke-width="0.77" points="217.99,-65.57 210.23,-58.35 211.8,-68.83 217.99,-65.57"/>
</g>
</g>
</svg>
